<svg xmlns="http://www.w3.org/2000/svg" viewBox="0 0 32 32" fill="none">
  <style>
    .p1 { fill: #5B6EAE; }
    .p2 { fill: #4A5A9C; }
    .p3 { fill: #3D4B8A; }
    .p4 { fill: #C5D0E8; }
    .p5 { fill: #9BA8CC; }
  </style>
  <rect class="p2" x="15" y="2" width="2" height="2"/>
  <rect class="p1" x="14" y="4" width="4" height="2"/>
  <rect class="p1" x="10" y="6" width="12" height="2"/>
  <rect class="p2" x="8" y="8" width="16" height="2"/>
  <rect class="p1" x="6" y="10" width="2" height="8"/>
  <rect class="p1" x="24" y="10" width="2" height="8"/>
  <rect class="p2" x="8" y="10" width="16" height="2"/>
  <rect class="p5" x="8" y="12" width="16" height="6"/>
  <rect class="p3" x="10" y="13" width="3" height="3"/>
  <rect class="p3" x="19" y="13" width="3" height="3"/>
  <rect class="p1" x="6" y="18" width="2" height="2"/>
  <rect class="p1" x="24" y="18" width="2" height="2"/>
  <rect class="p2" x="8" y="18" width="16" height="2"/>
  <rect class="p1" x="10" y="20" width="12" height="2"/>
  <rect class="p2" x="12" y="22" width="8" height="2"/>
  <rect class="p4" x="4" y="12" width="2" height="2"/>
  <rect class="p4" x="26" y="12" width="2" height="2"/>
  <rect class="p4" x="14" y="24" width="2" height="2"/>
</svg>
